<?xml version="1.0" encoding="iso-8859-1"?>
<!-- Generator: Adobe Illustrator 19.0.0, SVG Export Plug-In . SVG Version: 6.00 Build 0)  -->
<svg version="1.1" id="Layer_1" xmlns="http://www.w3.org/2000/svg" xmlns:xlink="http://www.w3.org/1999/xlink" x="0px" y="0px"
	 viewBox="0 0 502.4 502.4" style="enable-background:new 0 0 502.4 502.4;" xml:space="preserve">
<g>
	<g>
		<path d="M481.066,52.8h-78.933V21.867c0-11.733-9.6-21.333-21.333-21.333s-21.333,9.6-21.333,21.333V52.8h-217.6V21.867
			c0-11.733-9.6-21.333-21.333-21.333S99.2,10.133,99.2,21.867V52.8H21.333C9.6,52.8,0,62.4,0,74.133v406.4
			c0,11.733,9.6,21.333,21.333,21.333H480c11.733,0,21.333-9.6,22.4-20.267V74.133C502.4,62.4,492.8,52.8,481.066,52.8z
			 M41.6,460.267V94.4h57.6v21.333c0,11.733,9.6,21.333,21.333,21.333s20.267-8.533,21.333-20.267V94.4h217.6v21.333
			c0,11.733,9.6,21.333,21.333,21.333s21.333-8.533,21.333-20.267V94.4h57.6v365.867H41.6z"/>
	</g>
</g>
<g>
	<g>
		<path d="M227.2,379.2h-96c2.133-8.534,6.4-13.867,12.8-19.2c6.4-5.333,13.867-10.667,21.333-16c8.533-5.333,16-10.667,25.6-17.067
			c8.533-5.333,17.067-11.733,24.533-19.2c17.067-14.933,24.533-30.933,24.533-48c0-16-6.4-29.867-18.133-40.533
			s-26.667-14.933-44.8-14.933c-22.4,0-42.667,4.267-60.8,13.867c-4.267,2.133-6.4,5.333-6.4,9.6s1.067,6.4,3.2,8.533
			c2.133,2.133,4.267,3.2,6.4,3.2s4.267,0,6.4-1.067c14.933-6.4,30.933-9.6,46.933-9.6c14.933,0,26.667,3.2,34.133,9.6
			c3.2,3.2,5.333,6.4,7.467,10.667c1.067,4.267,2.133,9.6,2.133,16s-3.2,12.8-8.533,19.2c-5.333,6.4-11.733,12.8-20.267,18.133
			c-8.533,6.4-17.067,11.733-26.667,18.133s-18.133,11.733-26.667,19.2c-8.533,6.4-14.933,13.867-20.267,21.333
			c-5.333,7.467-8.533,16-8.533,26.667c0,4.267,1.067,7.467,4.267,10.667c3.2,2.133,6.4,4.267,10.667,4.267H227.2
			c3.2,0,6.4-1.067,8.533-3.2c2.133-2.133,3.2-5.333,3.2-8.533c0-3.2-1.067-6.4-3.2-8.533
			C233.599,380.267,230.399,379.2,227.2,379.2z"/>
	</g>
</g>
<g>
	<g>
		<path d="M403.199,377.067c-2.133-2.133-5.333-3.2-8.533-3.2h-27.733v-153.6c0-3.2-1.067-6.4-4.267-9.6
			c-2.133-2.133-5.333-4.267-9.6-4.267h-5.333c-2.133,0-5.333,1.067-7.467,2.133l-37.333,19.2c-4.267,2.133-7.467,5.333-7.467,9.6
			s1.067,7.467,3.2,9.6c2.133,2.133,4.267,3.2,7.467,3.2c2.133,0,4.267,0,5.333-1.067c1.067,0,2.133-1.067,3.2-1.067l27.733-13.867
			v139.733h-33.067c-3.2,0-6.4,1.067-8.533,3.2c-2.133,2.133-3.2,5.333-3.2,8.533c0,3.2,1.067,6.4,3.2,8.533
			c2.133,2.133,5.333,3.2,8.533,3.2h85.333c3.2,0,6.4-1.067,8.533-3.2c2.133-2.133,3.2-5.333,3.2-8.533
			C406.399,382.4,405.332,379.2,403.199,377.067z"/>
	</g>
</g>
<g>
</g>
<g>
</g>
<g>
</g>
<g>
</g>
<g>
</g>
<g>
</g>
<g>
</g>
<g>
</g>
<g>
</g>
<g>
</g>
<g>
</g>
<g>
</g>
<g>
</g>
<g>
</g>
<g>
</g>
</svg>
