<?xml version="1.0" standalone="no"?>
<!DOCTYPE svg PUBLIC "-//W3C//DTD SVG 20010904//EN"
 "http://www.w3.org/TR/2001/REC-SVG-20010904/DTD/svg10.dtd">
<svg version="1.0" xmlns="http://www.w3.org/2000/svg"
 width="1280.000000pt" height="823.000000pt" viewBox="0 0 1280.000000 823.000000"
 preserveAspectRatio="xMidYMid meet">
<metadata>
Created by potrace 1.16, written by Peter Selinger 2001-2019
</metadata>
<g transform="translate(0.000000,823.000000) scale(0.100000,-0.100000)"
fill="#000000" stroke="none">
<path d="M4160 8030 c-163 -20 -346 -97 -466 -198 -144 -121 -262 -304 -302
-468 l-17 -72 -225 -7 c-255 -8 -329 -22 -447 -81 -146 -74 -260 -192 -334
-349 -75 -159 -69 82 -69 -3010 0 -2499 2 -2784 16 -2853 56 -273 255 -484
530 -564 l79 -23 3475 0 3475 0 79 23 c275 79 474 291 530 564 14 69 16 353
16 2853 0 3111 6 2852 -75 3020 -99 205 -264 341 -479 395 -70 18 -112 20
-361 20 l-281 0 -18 75 c-33 139 -125 302 -234 412 -239 243 -609 331 -937
222 -285 -95 -510 -331 -586 -616 l-21 -80 -1166 -6 c-641 -4 -1167 -6 -1169
-4 -2 2 -11 35 -22 73 -97 365 -397 626 -772 674 -92 11 -123 11 -219 0z m203
-445 c151 -32 303 -157 341 -282 l7 -23 -440 0 c-243 0 -441 2 -441 5 0 3 12
29 26 57 59 116 188 215 317 243 81 18 108 18 190 0z m4195 -16 c115 -40 207
-121 263 -231 l29 -58 -445 0 -445 0 29 58 c107 210 347 307 569 231z m-5125
-799 c98 -242 327 -445 587 -520 106 -31 332 -40 395 -16 52 20 108 78 125
131 20 61 9 148 -26 198 -50 70 -97 89 -241 97 -118 6 -126 8 -205 48 -50 24
-101 59 -128 86 l-44 46 1822 -2 1823 -3 23 -58 c79 -192 243 -370 428 -463
120 -60 226 -86 380 -91 134 -5 139 -5 193 22 129 63 161 225 67 335 -50 59
-88 72 -222 80 -81 5 -132 14 -172 29 -64 25 -171 99 -188 131 l-11 20 889 0
c994 0 941 4 1027 -72 25 -22 58 -64 73 -92 l27 -51 3 -512 3 -513 -3661 0
-3661 0 3 513 3 512 27 51 c33 62 104 127 161 148 32 11 94 15 257 15 l215 1
28 -70z m2373 -2075 c120 -35 185 -170 135 -280 -19 -43 -76 -99 -120 -118
-37 -16 -644 -22 -714 -7 -72 15 -121 52 -152 113 -32 66 -32 119 1 185 29 57
65 88 127 108 64 20 656 19 723 -1z m1511 0 c61 -18 125 -83 144 -143 34 -114
-47 -239 -170 -262 -70 -13 -602 -13 -672 0 -72 14 -123 51 -154 113 -32 66
-32 119 1 186 28 56 79 98 136 111 18 4 175 8 349 9 254 1 325 -2 366 -14z
m1510 0 c82 -24 153 -117 153 -200 0 -72 -51 -149 -124 -188 -40 -21 -50 -22
-391 -22 l-351 0 -49 26 c-100 51 -144 183 -93 279 27 50 88 98 139 110 19 4
176 8 350 9 254 1 325 -2 366 -14z m1216 -3644 c-22 -70 -95 -150 -165 -182
l-53 -24 -1365 -1 c-751 -1 -1356 0 -1345 3 92 24 423 122 565 168 528 171
1002 369 1562 652 314 158 345 181 371 270 8 26 110 470 228 986 l214 937 3
-1377 c2 -1267 1 -1382 -15 -1432z m-5711 2324 c110 -78 125 -225 32 -319 -62
-61 -58 -61 -429 -64 -371 -3 -398 0 -459 50 -56 46 -79 99 -74 173 5 78 34
125 103 166 l50 29 367 -2 366 -3 44 -30z m1409 9 c128 -70 148 -244 38 -338
-64 -55 -88 -57 -464 -54 -371 3 -367 3 -429 64 -42 43 -59 83 -60 144 0 88
52 166 134 199 15 6 171 10 379 10 l353 1 49 -26z m1407 10 c170 -71 175 -302
8 -380 -51 -24 -54 -24 -391 -24 -337 0 -340 0 -391 24 -164 76 -163 301 1
377 36 17 71 19 388 19 292 0 354 -2 385 -16z m1461 -17 c76 -51 111 -135 90
-221 -15 -64 -84 -138 -144 -155 -56 -15 -674 -15 -726 0 -51 16 -105 62 -130
112 -17 32 -20 54 -17 102 5 78 34 125 103 166 l50 29 366 -2 365 -3 43 -28z
m-4314 -1276 c82 -37 128 -106 129 -191 1 -70 -32 -132 -92 -175 l-44 -30
-356 -3 c-304 -2 -363 0 -398 13 -145 55 -180 240 -66 348 56 53 77 56 447 56
309 1 344 -1 380 -18z m1408 8 c82 -22 147 -110 147 -198 0 -64 -11 -91 -55
-140 -64 -71 -74 -72 -477 -69 l-356 3 -44 30 c-110 78 -125 225 -31 319 63
64 74 66 443 66 204 0 350 -4 373 -11z m1453 -13 c167 -78 162 -309 -8 -380
-55 -24 -711 -24 -766 0 -170 71 -175 302 -8 380 51 24 54 24 391 24 337 0
340 0 391 -24z"/>
</g>
</svg>
