<?xml version="1.0" standalone="no"?>
<!DOCTYPE svg PUBLIC "-//W3C//DTD SVG 20010904//EN"
 "http://www.w3.org/TR/2001/REC-SVG-20010904/DTD/svg10.dtd">
<svg version="1.0" xmlns="http://www.w3.org/2000/svg"
 width="1280.000000pt" height="994.000000pt" viewBox="0 0 1280.000000 994.000000"
 preserveAspectRatio="xMidYMid meet">
<metadata>
Created by potrace 1.16, written by Peter Selinger 2001-2019
</metadata>
<g transform="translate(0.000000,994.000000) scale(0.100000,-0.100000)"
fill="#000000" stroke="none">
<path d="M2948 9819 c-96 -14 -179 -39 -266 -80 -262 -122 -459 -370 -516
-651 -14 -70 -16 -475 -16 -4123 0 -4482 -6 -4108 65 -4283 113 -278 361 -488
661 -559 76 -17 207 -18 3524 -18 l3445 0 89 23 c174 44 325 131 447 259 110
113 175 228 233 403 l21 65 3 4080 c3 4525 8 4147 -63 4322 -69 171 -216 342
-373 437 -97 58 -247 111 -355 125 -95 13 -6811 13 -6899 0z m1673 -2177 c419
-110 473 -683 82 -870 l-78 -37 -190 0 -190 0 -77 38 c-105 51 -178 123 -225
222 -31 66 -37 89 -41 170 -4 75 -1 106 16 161 46 149 142 251 287 302 78 28
89 29 230 30 83 1 140 -4 186 -16z m3927 3 c215 -51 362 -234 362 -450 0 -183
-103 -339 -278 -423 l-77 -37 -1270 -3 c-1247 -2 -1271 -2 -1336 18 -135 41
-249 146 -300 278 -33 85 -37 211 -11 299 33 108 102 201 192 258 37 23 137
62 180 68 14 2 576 5 1250 5 1049 2 1234 0 1288 -13z m-3978 -2225 c95 -15
201 -69 263 -133 272 -279 116 -728 -273 -788 -97 -15 -257 -6 -337 19 -128
40 -219 122 -282 252 -35 73 -36 78 -36 190 0 112 1 117 37 193 68 142 202
245 345 266 83 12 208 12 283 1z m4027 -18 c83 -31 158 -85 214 -155 62 -77
90 -152 97 -254 14 -239 -167 -455 -413 -493 -48 -7 -458 -10 -1280 -8 l-1210
3 -64 23 c-134 48 -218 124 -280 252 -35 73 -36 78 -36 190 0 112 1 117 36
190 74 153 193 244 354 270 28 4 606 7 1285 6 l1235 -1 62 -23z m-3956 -2232
c327 -100 436 -501 206 -755 -97 -108 -218 -154 -407 -154 -180 -1 -283 31
-384 120 -111 98 -162 222 -154 376 3 77 9 100 41 166 58 123 160 211 292 253
25 8 99 13 191 13 124 1 164 -3 215 -19z m4002 -22 c258 -124 344 -424 189
-664 -69 -106 -187 -187 -310 -213 -37 -8 -418 -11 -1265 -11 -1312 0 -1276
-1 -1385 54 -63 32 -142 104 -182 166 -144 224 -57 540 180 660 99 51 40 49
1410 47 l1285 -2 78 -37z"/>
</g>
</svg>
