<?xml version="1.0" standalone="no"?>
<!DOCTYPE svg PUBLIC "-//W3C//DTD SVG 20010904//EN"
 "http://www.w3.org/TR/2001/REC-SVG-20010904/DTD/svg10.dtd">
<svg version="1.0" xmlns="http://www.w3.org/2000/svg"
 width="1280.000000pt" height="720.000000pt" viewBox="0 0 1280.000000 720.000000"
 preserveAspectRatio="xMidYMid meet">
<metadata>
Created by potrace 1.16, written by Peter Selinger 2001-2019
</metadata>
<g transform="translate(0.000000,720.000000) scale(0.100000,-0.100000)"
fill="#000000" stroke="none">
<path d="M9125 7049 c-686 -72 -1247 -544 -1350 -1138 -12 -68 -15 -218 -15
-805 l-1 -721 -72 -50 c-201 -140 -378 -380 -463 -627 -61 -181 -59 -131 -59
-1303 0 -997 1 -1076 18 -1155 56 -260 170 -469 354 -652 194 -191 425 -311
683 -353 142 -23 2093 -23 2226 0 461 80 849 408 993 840 68 206 66 158 66
1315 0 1136 1 1104 -57 1290 -121 382 -426 693 -804 819 -205 68 -160 66
-1292 66 l-1023 0 3 620 3 620 28 80 c86 244 293 433 582 529 119 40 231 56
391 56 334 0 605 -106 801 -314 123 -130 184 -269 201 -456 5 -53 16 -111 26
-131 49 -104 144 -164 261 -163 119 0 202 51 254 156 27 53 31 72 31 144 0
609 -494 1154 -1180 1302 -182 40 -411 51 -605 31z m1258 -3065 c40 -9 108
-33 152 -54 150 -73 251 -174 326 -326 71 -146 69 -106 69 -1205 0 -952 -1
-989 -20 -1065 -33 -131 -82 -216 -185 -320 -74 -75 -105 -99 -175 -133 -167
-81 -91 -76 -1220 -76 -1124 0 -1052 -4 -1204 72 -144 72 -253 183 -322 328
-72 151 -68 87 -72 1130 -2 638 0 970 8 1034 20 179 77 297 205 427 66 66 98
89 175 128 158 78 104 74 1208 75 864 1 992 -1 1055 -15z"/>
<path d="M9258 3057 c-90 -26 -165 -93 -194 -174 -21 -60 -20 -842 2 -905 58
-173 285 -238 439 -126 47 34 91 96 105 150 7 24 10 188 8 451 l-3 412 -29 53
c-65 116 -202 174 -328 139z"/>
<path d="M2952 4079 c-284 -24 -601 -136 -843 -297 -665 -445 -963 -1249 -749
-2023 30 -111 100 -283 152 -377 294 -530 818 -879 1415 -942 65 -7 711 -10
1923 -8 l1825 3 40 22 c99 53 154 146 155 258 0 113 -54 205 -154 258 l-41 22
-1855 6 c-1688 5 -1862 7 -1930 22 -394 89 -702 319 -879 657 -98 187 -141
365 -141 581 0 345 134 658 385 898 173 165 361 266 612 328 62 16 224 17
1933 22 l1865 6 51 27 c95 50 145 126 152 234 8 130 -45 227 -156 281 l-57 28
-1800 1 c-990 1 -1846 -2 -1903 -7z"/>
<path d="M3312 3221 c-73 -25 -122 -67 -157 -136 l-30 -58 -3 -224 c-2 -152
-7 -223 -14 -223 -6 0 -97 23 -202 51 -161 43 -201 50 -252 46 -218 -17 -334
-262 -211 -444 53 -78 92 -99 308 -157 107 -29 193 -57 192 -63 -1 -5 -47 -80
-102 -166 -55 -87 -105 -174 -111 -193 -17 -50 -8 -170 15 -219 46 -95 130
-147 246 -153 146 -8 201 35 349 271 51 81 96 147 101 147 4 0 59 -62 122
-138 63 -75 126 -147 139 -159 72 -67 217 -88 310 -44 142 68 205 240 140 383
-11 24 -74 108 -141 188 -67 79 -121 147 -121 150 0 3 82 39 183 80 148 61
191 82 229 118 65 60 92 132 86 227 -5 79 -24 123 -77 178 -54 58 -104 80
-191 85 -75 4 -77 4 -247 -66 l-171 -70 -4 191 c-4 227 -16 266 -100 342 -81
73 -181 92 -286 56z"/>
<path d="M5675 3231 c-55 -14 -113 -50 -148 -92 -60 -70 -67 -105 -67 -349 l0
-217 -197 54 c-230 62 -289 66 -379 20 -162 -82 -204 -304 -83 -441 56 -63 85
-76 289 -130 96 -26 181 -49 187 -51 8 -3 -29 -69 -97 -175 -143 -224 -157
-287 -94 -417 48 -99 140 -153 261 -153 69 0 118 16 171 57 29 21 137 176 238
341 l21 33 89 -108 c195 -235 238 -266 364 -267 162 0 283 121 284 284 0 94
-30 150 -168 312 -64 75 -116 141 -116 145 0 5 81 42 180 83 200 82 245 112
288 194 22 43 27 64 27 131 0 67 -5 88 -27 131 -55 105 -155 160 -276 152 -53
-4 -97 -17 -217 -67 -82 -35 -156 -65 -162 -68 -10 -4 -13 37 -13 184 0 215
-8 254 -67 322 -48 56 -118 91 -196 96 -34 2 -75 1 -92 -4z"/>
</g>
</svg>
