<?xml version="1.0" standalone="no"?>
<!DOCTYPE svg PUBLIC "-//W3C//DTD SVG 20010904//EN"
 "http://www.w3.org/TR/2001/REC-SVG-20010904/DTD/svg10.dtd">
<svg version="1.0" xmlns="http://www.w3.org/2000/svg"
 width="1280.000000pt" height="1025.000000pt" viewBox="0 0 1280.000000 1025.000000"
 preserveAspectRatio="xMidYMid meet">
<metadata>
Created by potrace 1.16, written by Peter Selinger 2001-2019
</metadata>
<g transform="translate(0.000000,1025.000000) scale(0.100000,-0.100000)"
fill="#000000" stroke="none">
<path d="M6190 9918 c-67 -19 -120 -90 -120 -160 0 -49 36 -114 78 -140 34
-21 53 -23 232 -30 883 -30 1695 -287 2423 -764 280 -184 460 -328 701 -564
558 -545 946 -1160 1186 -1880 149 -446 222 -848 239 -1321 7 -200 10 -220 31
-253 59 -96 207 -102 276 -10 l29 38 -1 180 c-5 702 -192 1462 -522 2121 -139
279 -345 608 -525 838 -582 745 -1349 1310 -2217 1635 -467 175 -995 286
-1455 307 -276 12 -322 13 -355 3z"/>
<path d="M3040 9415 c-306 -102 -725 -369 -1001 -636 -365 -356 -542 -837
-500 -1366 99 -1267 619 -2542 1520 -3727 418 -550 959 -1112 1516 -1575 1162
-967 2457 -1570 3720 -1731 247 -31 426 -42 695 -42 526 0 772 44 1070 194
240 120 464 315 605 527 83 125 196 357 240 493 58 180 48 338 -33 492 -54
104 -140 185 -307 288 -751 466 -1508 779 -2168 898 -139 25 -204 25 -301 0
-163 -41 -175 -51 -671 -519 -206 -194 -292 -236 -480 -235 -140 0 -185 17
-395 143 -418 252 -821 548 -1195 879 -169 149 -539 521 -684 687 -315 359
-680 852 -737 994 -65 162 -50 348 39 489 18 29 166 195 328 369 162 173 314
345 339 381 59 87 90 183 97 297 13 230 -166 864 -387 1370 -187 429 -549
1066 -679 1195 -119 117 -251 170 -426 170 -87 0 -113 -5 -205 -35z"/>
<path d="M6161 8148 c-103 -55 -120 -190 -35 -270 40 -36 91 -48 209 -48 55 0
156 -7 225 -15 674 -78 1269 -365 1745 -840 528 -526 821 -1179 865 -1926 13
-222 13 -220 50 -263 40 -45 79 -60 141 -54 53 5 89 26 123 72 27 36 32 146
16 345 -73 914 -510 1733 -1235 2316 -38 31 -135 100 -215 153 -515 343 -1062
519 -1700 548 -140 6 -146 5 -189 -18z"/>
</g>
</svg>
