<?xml version="1.0" standalone="no"?>
<!DOCTYPE svg PUBLIC "-//W3C//DTD SVG 20010904//EN"
 "http://www.w3.org/TR/2001/REC-SVG-20010904/DTD/svg10.dtd">
<svg version="1.0" xmlns="http://www.w3.org/2000/svg"
 width="1280.000000pt" height="1045.000000pt" viewBox="0 0 1280.000000 1045.000000"
 preserveAspectRatio="xMidYMid meet">
<metadata>
Created by potrace 1.16, written by Peter Selinger 2001-2019
</metadata>
<g transform="translate(0.000000,1045.000000) scale(0.100000,-0.100000)"
fill="#000000" stroke="none">
<path d="M6749 10136 c-92 -33 -139 -100 -139 -200 0 -92 53 -170 132 -195 18
-5 96 -17 173 -26 775 -90 1552 -407 2170 -885 225 -174 514 -450 686 -655
555 -661 907 -1468 1009 -2309 12 -94 28 -188 37 -208 58 -136 254 -160 351
-43 46 57 53 107 36 260 -128 1106 -633 2136 -1427 2911 -773 755 -1742 1217
-2827 1349 -148 18 -155 18 -201 1z"/>
<path d="M3138 9255 c-72 -20 -130 -51 -236 -127 -410 -297 -777 -660 -1099
-1088 -235 -313 -252 -385 -173 -735 354 -1575 966 -2911 1813 -3958 976
-1206 2255 -2044 3877 -2538 342 -105 1042 -268 1261 -294 76 -9 191 10 264
44 191 90 691 507 962 803 209 228 412 486 473 599 58 108 76 264 45 384 -21
80 -95 217 -220 405 -344 522 -761 934 -1334 1318 -276 185 -339 212 -495 212
-109 -1 -159 -11 -246 -52 -59 -28 -108 -73 -500 -464 -468 -466 -477 -473
-578 -474 -61 0 -118 26 -331 153 -430 255 -797 536 -1140 872 -344 337 -607
662 -861 1060 -94 147 -244 408 -255 443 -12 40 -7 118 10 158 11 27 147 171
449 474 462 465 476 482 511 615 19 76 19 204 0 280 -27 104 -165 327 -370
600 -343 457 -702 798 -1145 1090 -301 198 -388 236 -544 234 -50 0 -112 -7
-138 -14z m308 -482 c413 -248 764 -559 1093 -966 90 -111 255 -344 329 -463
51 -83 62 -109 62 -144 l0 -44 -439 -440 c-430 -433 -439 -443 -479 -526 -56
-113 -72 -183 -72 -305 0 -166 28 -241 191 -520 550 -940 1298 -1698 2225
-2255 362 -217 439 -246 633 -238 115 6 222 37 311 93 25 15 239 220 475 455
451 449 461 458 527 439 36 -10 253 -149 402 -257 476 -347 856 -757 1137
-1223 105 -177 105 -172 -10 -326 -286 -385 -610 -706 -1006 -1001 -77 -57
-151 -109 -165 -114 -19 -7 -87 3 -285 42 -2406 481 -4177 1703 -5294 3655
-408 713 -740 1558 -967 2457 -82 329 -113 479 -104 504 11 28 118 177 218
303 273 343 623 677 956 910 87 60 105 58 262 -36z"/>
<path d="M6552 8305 c-34 -18 -63 -42 -80 -68 -23 -35 -27 -51 -27 -118 0 -70
3 -81 30 -120 41 -58 86 -78 212 -95 1006 -129 1828 -790 2158 -1736 41 -117
98 -346 114 -458 6 -41 15 -106 20 -144 17 -118 79 -182 186 -193 102 -11 200
53 225 148 14 51 2 177 -36 370 -197 1018 -895 1857 -1862 2241 -253 100 -565
175 -807 193 -74 6 -84 4 -133 -20z"/>
</g>
</svg>
