<?xml version="1.0" standalone="no"?>
<!DOCTYPE svg PUBLIC "-//W3C//DTD SVG 20010904//EN"
 "http://www.w3.org/TR/2001/REC-SVG-20010904/DTD/svg10.dtd">
<svg version="1.0" xmlns="http://www.w3.org/2000/svg"
 width="1280.000000pt" height="720.000000pt" viewBox="0 0 1280.000000 720.000000"
 preserveAspectRatio="xMidYMid meet">
<metadata>
Created by potrace 1.16, written by Peter Selinger 2001-2019
</metadata>
<g transform="translate(0.000000,720.000000) scale(0.100000,-0.100000)"
fill="#000000" stroke="none">
<path d="M3058 7160 c-198 -35 -363 -172 -430 -357 -14 -38 -23 -91 -26 -155
l-4 -98 -38 0 c-104 0 -315 -57 -435 -118 -316 -159 -533 -467 -585 -827 -6
-45 -10 -860 -10 -2255 0 -2345 -1 -2278 50 -2442 118 -382 419 -655 830 -754
72 -18 247 -19 3930 -22 2772 -2 3883 0 3953 8 145 17 238 44 372 110 295 144
491 386 583 718 l27 97 3 2210 c2 1630 0 2235 -8 2305 -52 422 -339 781 -734
919 -185 65 39 61 -3266 61 l-3007 0 -5 98 c-6 110 -27 174 -83 259 -73 109
-177 187 -305 229 -48 15 -101 18 -410 20 -195 1 -376 -1 -402 -6z m19 -1751
c49 -23 89 -70 109 -126 11 -31 13 -377 13 -1938 l1 -1900 -24 -51 c-50 -108
-162 -157 -280 -122 -54 16 -128 90 -144 144 -9 32 -12 473 -12 1941 l0 1899
26 52 c58 117 190 160 311 101z m5008 -75 c884 -124 1586 -827 1710 -1715 20
-149 20 -414 0 -556 -88 -594 -425 -1107 -937 -1425 -243 -151 -564 -258 -867
-288 -444 -44 -915 75 -1296 328 -586 389 -932 1056 -901 1742 52 1191 1113
2078 2291 1914z"/>
<path d="M7560 4886 c-512 -91 -926 -397 -1150 -854 -223 -453 -208 -1000 41
-1437 407 -715 1283 -992 2026 -640 443 209 756 609 860 1095 28 132 25 479
-5 613 -32 144 -76 267 -144 398 -211 411 -599 708 -1060 810 -120 27 -452 35
-568 15z m301 -628 c22 -6 58 -27 80 -47 156 -133 67 -391 -135 -391 -150 0
-306 -81 -390 -202 -51 -74 -76 -148 -87 -251 -5 -50 -17 -103 -28 -125 -74
-143 -263 -171 -373 -55 -43 44 -58 93 -58 183 0 367 267 728 630 850 132 45
286 61 361 38z"/>
</g>
</svg>
