<?xml version="1.0" encoding="UTF-8" standalone="no"?> <svg width="512" height="512" viewBox="0 0 512 512" fill="none" xmlns="http://www.w3.org/2000/svg">
<path d="M40 320V472C40 474.122 40.8429 476.157 42.3431 477.657C43.8434 479.157 45.8783 480 48 480H464C466.122 480 468.157 479.157 469.657 477.657C471.157 476.157 472 474.122 472 472V320C472 317.878 471.157 315.843 469.657 314.343C468.157 312.843 466.122 312 464 312H436L414.4 283.2C413.655 282.206 412.689 281.4 411.578 280.845C410.467 280.289 409.242 280 408 280C406.758 280 405.533 280.289 404.422 280.845C403.311 281.4 402.345 282.206 401.6 283.2L380 312H361.854C378.909 297.012 392.564 278.551 401.902 257.855C411.241 237.158 416.047 214.705 416 192C416 103.776 344.224 32 256 32C167.776 32 96 103.776 96 192C95.9528 214.705 100.759 237.158 110.098 257.855C119.436 278.551 133.091 297.012 150.146 312H48C45.8783 312 43.8434 312.843 42.3431 314.343C40.8429 315.843 40 317.878 40 320ZM112 192C112 112.6 176.6 48 256 48C335.4 48 400 112.6 400 192C400.045 215.771 394.183 239.181 382.942 260.126C371.702 281.072 355.434 298.897 335.6 312H176.4C156.566 298.897 140.298 281.072 129.058 260.126C117.817 239.181 111.955 215.771 112 192V192ZM56 328H384C385.242 328 386.467 327.711 387.578 327.155C388.689 326.6 389.655 325.794 390.4 324.8L408 301.333L425.6 324.8C426.345 325.794 427.311 326.6 428.422 327.155C429.533 327.711 430.758 328 432 328H456V464H56V328Z" fill="black"/>
<path d="M302.6 378.774L274.025 373.843L261.889 347.508C261.265 346.152 260.273 344.998 259.027 344.177C257.78 343.355 256.329 342.899 254.837 342.859C253.344 342.819 251.871 343.198 250.582 343.952C249.294 344.706 248.242 345.805 247.546 347.126L234.026 372.779L205.226 376.184C203.743 376.358 202.339 376.944 201.172 377.876C200.005 378.807 199.121 380.046 198.622 381.453C198.123 382.86 198.027 384.379 198.346 385.838C198.665 387.296 199.385 388.637 200.426 389.707L220.645 410.492L215 438.932C214.709 440.396 214.833 441.912 215.359 443.309C215.884 444.707 216.79 445.929 217.974 446.838C219.158 447.747 220.572 448.307 222.058 448.454C223.543 448.602 225.04 448.33 226.379 447.671L252.395 434.865L277.695 449.036C278.998 449.766 280.478 450.116 281.969 450.048C283.46 449.98 284.903 449.497 286.133 448.652C287.364 447.807 288.334 446.634 288.933 445.267C289.532 443.9 289.736 442.392 289.523 440.915L285.382 412.215L306.682 392.534C307.779 391.521 308.57 390.221 308.966 388.782C309.362 387.342 309.348 385.821 308.924 384.389C308.501 382.958 307.685 381.673 306.57 380.681C305.454 379.689 304.083 379.029 302.612 378.775L302.6 378.774ZM271.43 403.319C270.478 404.199 269.754 405.298 269.32 406.52C268.887 407.743 268.757 409.052 268.942 410.336L271.368 427.155L256.542 418.855C255.411 418.221 254.142 417.871 252.846 417.836C251.549 417.801 250.263 418.082 249.099 418.655L233.853 426.155L237.17 409.488C237.423 408.216 237.363 406.902 236.995 405.658C236.627 404.414 235.963 403.279 235.058 402.349L223.209 390.167L240.085 388.167C241.373 388.015 242.605 387.551 243.675 386.817C244.744 386.083 245.619 385.1 246.223 383.952L254.146 368.92L261.259 384.353C261.802 385.53 262.622 386.558 263.65 387.348C264.678 388.138 265.882 388.667 267.159 388.888L283.905 391.778L271.43 403.319Z" fill="black"/>
<path d="M177.36 378.774L148.785 373.843L136.648 347.508C136.023 346.152 135.032 344.999 133.785 344.177C132.539 343.356 131.088 342.9 129.596 342.86C128.104 342.82 126.63 343.199 125.342 343.952C124.054 344.706 123.002 345.806 122.306 347.126L108.785 372.779L79.9851 376.184C78.5022 376.358 77.0978 376.944 75.9306 377.876C74.7635 378.807 73.8802 380.046 73.3808 381.453C72.8813 382.86 72.7856 384.379 73.1045 385.838C73.4234 387.296 74.1441 388.637 75.1851 389.707L95.4041 410.492L89.7431 438.932C89.4518 440.396 89.5759 441.912 90.1013 443.309C90.6268 444.707 91.5327 445.929 92.7165 446.838C93.9004 447.747 95.315 448.307 96.8004 448.454C98.2859 448.602 99.7828 448.33 101.122 447.671L127.139 434.865L152.439 449.036C153.741 449.766 155.222 450.116 156.713 450.048C158.204 449.98 159.647 449.497 160.877 448.652C162.108 447.807 163.077 446.634 163.676 445.267C164.275 443.9 164.48 442.392 164.267 440.915L160.127 412.215L181.427 392.534C182.523 391.521 183.315 390.221 183.711 388.782C184.107 387.342 184.092 385.821 183.669 384.389C183.246 382.958 182.43 381.673 181.314 380.681C180.199 379.689 178.828 379.029 177.357 378.775L177.36 378.774ZM146.186 403.319C145.234 404.199 144.51 405.298 144.076 406.52C143.643 407.743 143.513 409.052 143.698 410.336L146.124 427.155L131.298 418.855C130.167 418.221 128.898 417.871 127.601 417.836C126.305 417.801 125.019 418.082 123.855 418.655L108.608 426.155L111.926 409.488C112.179 408.216 112.119 406.901 111.751 405.658C111.383 404.414 110.718 403.279 109.814 402.349L97.9651 390.169L114.841 388.169C116.129 388.017 117.361 387.553 118.43 386.819C119.5 386.085 120.374 385.102 120.979 383.954L128.902 368.921L136.015 384.355C136.558 385.533 137.379 386.561 138.408 387.351C139.437 388.141 140.642 388.669 141.92 388.89L158.666 391.78L146.186 403.319Z" fill="black"/>
<path d="M432.432 378.774L403.857 373.843L391.721 347.508C391.096 346.152 390.104 344.998 388.858 344.177C387.612 343.355 386.16 342.899 384.668 342.859C383.176 342.819 381.702 343.198 380.414 343.952C379.125 344.706 378.074 345.805 377.378 347.126L363.857 372.779L335.057 376.184C333.574 376.359 332.17 376.946 331.004 377.877C329.838 378.809 328.955 380.048 328.456 381.455C327.957 382.862 327.862 384.381 328.181 385.839C328.5 387.297 329.221 388.637 330.262 389.707L350.48 410.492L344.82 438.932C344.528 440.396 344.652 441.913 345.178 443.31C345.703 444.707 346.609 445.93 347.793 446.839C348.977 447.748 350.392 448.308 351.878 448.455C353.363 448.602 354.861 448.33 356.2 447.671L382.216 434.865L407.516 449.036C408.818 449.765 410.298 450.116 411.789 450.048C413.28 449.98 414.723 449.496 415.953 448.651C417.183 447.806 418.153 446.634 418.752 445.267C419.351 443.9 419.556 442.392 419.343 440.915L415.203 412.215L436.5 392.533C437.596 391.52 438.387 390.22 438.783 388.781C439.18 387.342 439.165 385.82 438.742 384.389C438.319 382.957 437.503 381.673 436.388 380.68C435.273 379.688 433.902 379.028 432.431 378.774H432.432ZM401.258 403.319C400.305 404.199 399.581 405.298 399.148 406.52C398.714 407.743 398.585 409.052 398.77 410.336L401.196 427.155L386.37 418.855C385.238 418.221 383.97 417.871 382.673 417.836C381.376 417.801 380.091 418.082 378.927 418.655L363.681 426.155L367 409.49C367.253 408.218 367.193 406.904 366.825 405.66C366.457 404.416 365.792 403.281 364.888 402.351L353.039 390.169L369.915 388.169C371.203 388.017 372.435 387.553 373.504 386.819C374.573 386.085 375.448 385.102 376.053 383.954L383.976 368.921L391.089 384.355C391.632 385.533 392.453 386.561 393.482 387.351C394.51 388.141 395.716 388.669 396.994 388.89L413.74 391.78L401.258 403.319Z" fill="black"/>
<path d="M344 280C346.122 280 348.157 279.157 349.657 277.657C351.157 276.156 352 274.122 352 272V248C351.98 232.503 348.219 217.241 341.034 203.51C333.85 189.779 323.456 177.986 310.736 169.135C316.618 159.428 319.812 148.333 319.992 136.985C320.173 125.637 317.332 114.445 311.762 104.557C306.192 94.6687 298.092 86.4394 288.294 80.7128C278.495 74.9862 267.35 71.9683 256 71.9683C244.651 71.9683 233.506 74.9862 223.707 80.7128C213.909 86.4394 205.809 94.6687 200.239 104.557C194.669 114.445 191.828 125.637 192.009 136.985C192.189 148.333 195.383 159.428 201.265 169.135C188.546 177.988 178.153 189.781 170.969 203.511C163.785 217.242 160.022 232.504 160 248V272C160 274.122 160.843 276.156 162.343 277.657C163.843 279.157 165.878 280 168 280H344ZM256 87.9999C264.97 87.9928 273.761 90.5011 281.377 95.2399C288.993 99.9787 295.127 106.758 299.083 114.808C303.039 122.858 304.658 131.856 303.757 140.78C302.856 149.705 299.47 158.197 293.985 165.294C293.294 165.89 292.71 166.6 292.26 167.394L292.254 167.405C286.992 173.479 280.288 178.135 272.758 180.944C265.228 183.753 257.113 184.625 249.157 183.481C241.202 182.338 233.662 179.214 227.228 174.398C220.795 169.581 215.674 163.225 212.336 155.914C208.998 148.603 207.55 140.571 208.124 132.555C208.699 124.539 211.277 116.795 215.624 110.035C219.97 103.274 225.945 97.714 233 93.864C240.054 90.014 247.963 87.9976 256 87.9999V87.9999ZM176 248C176.02 234.911 179.242 222.025 185.385 210.467C191.529 198.909 200.407 189.029 211.246 181.691C223.187 193.425 239.258 200 255.999 200C272.741 200 288.812 193.425 300.753 181.691C311.593 189.028 320.473 198.907 326.617 210.465C332.761 222.023 335.982 234.91 336 248V264H176V248Z" fill="black"/>
</svg>
