<?xml version="1.0" standalone="no"?>
<!DOCTYPE svg PUBLIC "-//W3C//DTD SVG 20010904//EN"
 "http://www.w3.org/TR/2001/REC-SVG-20010904/DTD/svg10.dtd">
<svg version="1.0" xmlns="http://www.w3.org/2000/svg"
 width="1280.000000pt" height="989.000000pt" viewBox="0 0 1280.000000 989.000000"
 preserveAspectRatio="xMidYMid meet">
<metadata>
Created by potrace 1.16, written by Peter Selinger 2001-2019
</metadata>
<g transform="translate(0.000000,989.000000) scale(0.100000,-0.100000)"
fill="#000000" stroke="none">
<path d="M10088 9765 c-134 -26 -274 -87 -388 -171 -36 -26 -144 -125 -240
-220 l-175 -173 673 -673 673 -673 178 180 c196 200 252 272 312 399 68 145
82 217 82 401 0 132 -3 173 -21 238 -27 100 -89 232 -146 310 -51 72 -170 189
-239 236 -71 49 -205 109 -294 132 -103 27 -308 34 -415 14z"/>
<path d="M6552 6462 l-2621 -2628 307 -307 307 -307 2630 2631 2630 2631 -310
304 c-170 167 -312 304 -316 304 -3 0 -1186 -1183 -2627 -2628z"/>
<path d="M2135 8819 c-225 -37 -415 -198 -504 -427 l-26 -67 0 -3825 0 -3825
23 -66 c64 -186 209 -334 400 -408 l67 -26 3830 0 3830 0 67 26 c201 78 334
216 406 418 l27 76 3 3288 c1 1808 -1 3287 -6 3287 -4 0 -42 -35 -85 -78 l-77
-77 0 -3161 c0 -2227 -3 -3178 -11 -3220 -32 -176 -159 -315 -349 -383 -41
-15 -382 -16 -3740 -19 -2386 -1 -3727 1 -3784 7 -177 20 -318 119 -394 278
l-37 78 -3 3783 -2 3782 21 63 c55 166 203 295 373 326 42 8 994 11 3221 11
l3160 0 78 78 c42 42 77 81 77 85 0 10 -6504 7 -6565 -4z"/>
<path d="M7277 5742 l-2627 -2627 307 -307 306 -306 2629 2621 c1445 1441
2628 2626 2628 2632 0 9 -208 218 -510 512 l-105 103 -2628 -2628z"/>
<path d="M3866 3659 c-21 -88 -296 -1512 -293 -1516 5 -4 1493 284 1520 295
14 6 -108 133 -602 626 -556 556 -620 617 -625 595z"/>
</g>
</svg>
