<?xml version="1.0" standalone="no"?>
<!DOCTYPE svg PUBLIC "-//W3C//DTD SVG 20010904//EN"
 "http://www.w3.org/TR/2001/REC-SVG-20010904/DTD/svg10.dtd">
<svg version="1.0" xmlns="http://www.w3.org/2000/svg"
 width="1280.000000pt" height="970.000000pt" viewBox="0 0 1280.000000 970.000000"
 preserveAspectRatio="xMidYMid meet">
<metadata>
Created by potrace 1.16, written by Peter Selinger 2001-2019
</metadata>
<g transform="translate(0.000000,970.000000) scale(0.100000,-0.100000)"
fill="#000000" stroke="none">
<path d="M5853 9329 c-481 -22 -971 -128 -1438 -312 -176 -69 -510 -237 -675
-339 -858 -530 -1510 -1322 -1858 -2259 -351 -945 -371 -2016 -53 -2966 452
-1353 1496 -2395 2852 -2847 609 -202 1303 -268 1967 -186 838 104 1649 457
2298 1001 717 600 1224 1397 1463 2299 44 165 87 393 107 560 10 80 19 147 20
149 2 1 90 -67 196 -153 106 -86 197 -156 203 -156 9 1 56 57 228 271 l37 47
-525 426 c-289 234 -527 426 -530 426 -3 0 -5 -111 -5 -247 0 -614 -62 -1026
-226 -1505 -368 -1074 -1199 -1965 -2251 -2412 -1009 -429 -2156 -429 -3166 0
-1049 446 -1876 1328 -2245 2395 -238 689 -290 1389 -156 2099 169 899 659
1739 1362 2333 387 327 831 581 1297 740 397 136 738 199 1198 223 l127 6 0
209 0 209 -27 -2 c-16 0 -105 -5 -200 -9z"/>
<path d="M5780 8479 c-1464 -125 -2701 -1104 -3154 -2496 -76 -237 -127 -471
-158 -738 -17 -145 -17 -626 0 -770 79 -668 311 -1262 693 -1776 805 -1082
2119 -1625 3459 -1429 764 112 1470 469 2026 1024 302 303 526 618 709 1000
550 1145 455 2512 -247 3570 -577 869 -1487 1444 -2513 1590 -244 35 -582 45
-815 25z m500 -2324 l0 -1095 530 0 530 0 0 -200 0 -200 -730 0 -730 0 0 1295
0 1295 200 0 200 0 0 -1095z"/>
</g>
</svg>
