<?xml version="1.0" standalone="no"?>
<!DOCTYPE svg PUBLIC "-//W3C//DTD SVG 20010904//EN"
 "http://www.w3.org/TR/2001/REC-SVG-20010904/DTD/svg10.dtd">
<svg version="1.0" xmlns="http://www.w3.org/2000/svg"
 width="1280.000000pt" height="989.000000pt" viewBox="0 0 1280.000000 989.000000"
 preserveAspectRatio="xMidYMid meet">
<metadata>
Created by potrace 1.16, written by Peter Selinger 2001-2019
</metadata>
<g transform="translate(0.000000,989.000000) scale(0.100000,-0.100000)"
fill="#000000" stroke="none">
<path d="M6193 9160 c-703 -89 -1282 -562 -1498 -1224 -65 -201 -80 -305 -80
-556 0 -241 10 -322 61 -497 165 -572 600 -1025 1161 -1209 446 -146 939 -112
1358 96 513 254 865 721 973 1295 13 68 17 146 17 315 0 195 -3 240 -23 338
-148 731 -710 1288 -1434 1423 -129 23 -416 34 -535 19z"/>
<path d="M6140 5154 c-825 -72 -1541 -385 -2133 -931 -610 -562 -1012 -1356
-1101 -2173 -37 -340 -32 -408 33 -470 42 -40 363 -203 599 -304 1208 -519
2646 -687 4052 -475 629 95 1299 298 1881 568 264 123 378 189 414 240 30 42
30 45 29 164 -4 404 -114 886 -296 1297 -345 782 -984 1426 -1764 1779 -323
146 -652 239 -1015 287 -118 15 -590 27 -699 18z"/>
</g>
</svg>
